<?xml version="1.0" encoding="UTF-8"?>
<svg width="29px" height="26px" viewBox="0 0 29 26" version="1.1" xmlns="http://www.w3.org/2000/svg" xmlns:xlink="http://www.w3.org/1999/xlink">
    <!-- Generator: Sketch 61.2 (89653) - https://sketch.com -->
    <title>Combined Shape</title>
    <desc>Created with Sketch.</desc>
    <g id="Page-1" stroke="none" stroke-width="1" fill="none" fill-rule="evenodd">
        <g id="monitoring_test2" transform="translate(-760.000000, -192.000000)" fill="#21BBFD" fill-rule="nonzero">
            <g id="Group-7" transform="translate(385.000000, 175.000000)">
                <g id="filesync/node2" transform="translate(375.000000, 17.000000)">
                    <path d="M27,0 C28.1045695,-2.02906125e-16 29,0.8954305 29,2 L29,19 C29,20.1045695 28.1045695,21 27,21 L17,21 L17,24 L24,24 L24,26 L5,26 L5,24 L12,24 L12,21 L2,21 C0.8954305,21 1.3527075e-16,20.1045695 0,19 L0,2 C-1.3527075e-16,0.8954305 0.8954305,2.02906125e-16 2,0 L27,0 Z M27,17 L2,17 L2,18 C2,18.5128358 2.38604019,18.9355072 2.88337887,18.9932723 L3,19 L26,19 C26.5128358,19 26.9355072,18.6139598 26.9932723,18.1166211 L27,18 L27,17 Z M26,2 L3,2 C2.48716416,2 2.06449284,2.38604019 2.00672773,2.88337887 L2,3 L2,15 L27,15 L27,3 C27,2.44771525 26.5522847,2 26,2 Z" id="Combined-Shape"></path>
                </g>
            </g>
        </g>
    </g>
</svg>